<?xml version="1.0" encoding="UTF-8" standalone="no"?>
<!DOCTYPE svg PUBLIC "-//W3C//DTD SVG 1.1//EN"
 "http://www.w3.org/Graphics/SVG/1.1/DTD/svg11.dtd">
<!-- Generated by graphviz version 2.38.0 (20140413.2041)
 -->
<!-- Title: snakemake_dag Pages: 1 -->
<svg width="211pt" height="260pt"
 viewBox="0.00 0.00 210.53 260.00" xmlns="http://www.w3.org/2000/svg" xmlns:xlink="http://www.w3.org/1999/xlink">
<g id="graph0" class="graph" transform="scale(1 1) rotate(0) translate(4 256)">
<title>snakemake_dag</title>
<polygon fill="white" stroke="none" points="-4,4 -4,-256 206.534,-256 206.534,4 -4,4"/>
<!-- 0 -->
<g id="node1" class="node"><title>0</title>
<path fill="none" stroke="#56a9d8" stroke-width="2" stroke-dasharray="5,2" d="M117.655,-36C117.655,-36 87.655,-36 87.655,-36 81.655,-36 75.655,-30 75.655,-24 75.655,-24 75.655,-12 75.655,-12 75.655,-6 81.655,-0 87.655,-0 87.655,-0 117.655,-0 117.655,-0 123.655,-0 129.655,-6 129.655,-12 129.655,-12 129.655,-24 129.655,-24 129.655,-30 123.655,-36 117.655,-36"/>
<text text-anchor="middle" x="102.655" y="-15" font-family="sans" font-size="10.00">all</text>
</g>
<!-- 1 -->
<g id="node2" class="node"><title>1</title>
<path fill="none" stroke="#d8ac56" stroke-width="2" stroke-dasharray="5,2" d="M117.655,-108C117.655,-108 87.655,-108 87.655,-108 81.655,-108 75.655,-102 75.655,-96 75.655,-96 75.655,-84 75.655,-84 75.655,-78 81.655,-72 87.655,-72 87.655,-72 117.655,-72 117.655,-72 123.655,-72 129.655,-78 129.655,-84 129.655,-84 129.655,-96 129.655,-96 129.655,-102 123.655,-108 117.655,-108"/>
<text text-anchor="middle" x="102.655" y="-87" font-family="sans" font-size="10.00">plot</text>
</g>
<!-- 1&#45;&gt;0 -->
<g id="edge1" class="edge"><title>1&#45;&gt;0</title>
<path fill="none" stroke="grey" stroke-width="2" d="M102.655,-71.6966C102.655,-63.9827 102.655,-54.7125 102.655,-46.1124"/>
<polygon fill="grey" stroke="grey" stroke-width="2" points="106.155,-46.1043 102.655,-36.1043 99.1551,-46.1044 106.155,-46.1043"/>
</g>
<!-- 2 -->
<g id="node3" class="node"><title>2</title>
<path fill="none" stroke="#59d856" stroke-width="2" stroke-dasharray="5,2" d="M87.4655,-180C87.4655,-180 11.8445,-180 11.8445,-180 5.84451,-180 -0.155485,-174 -0.155485,-168 -0.155485,-168 -0.155485,-156 -0.155485,-156 -0.155485,-150 5.84451,-144 11.8445,-144 11.8445,-144 87.4655,-144 87.4655,-144 93.4655,-144 99.4655,-150 99.4655,-156 99.4655,-156 99.4655,-168 99.4655,-168 99.4655,-174 93.4655,-180 87.4655,-180"/>
<text text-anchor="middle" x="49.655" y="-159" font-family="sans" font-size="10.00">gene_sample_counts</text>
</g>
<!-- 2&#45;&gt;1 -->
<g id="edge2" class="edge"><title>2&#45;&gt;1</title>
<path fill="none" stroke="grey" stroke-width="2" d="M62.7561,-143.697C69.0459,-135.389 76.7024,-125.277 83.6199,-116.141"/>
<polygon fill="grey" stroke="grey" stroke-width="2" points="86.4586,-118.19 89.7046,-108.104 80.8777,-113.964 86.4586,-118.19"/>
</g>
<!-- 3 -->
<g id="node4" class="node"><title>3</title>
<path fill="none" stroke="#d85656" stroke-width="2" stroke-dasharray="5,2" d="M181.644,-180C181.644,-180 129.666,-180 129.666,-180 123.666,-180 117.666,-174 117.666,-168 117.666,-168 117.666,-156 117.666,-156 117.666,-150 123.666,-144 129.666,-144 129.666,-144 181.644,-144 181.644,-144 187.644,-144 193.644,-150 193.644,-156 193.644,-156 193.644,-168 193.644,-168 193.644,-174 187.644,-180 181.644,-180"/>
<text text-anchor="middle" x="155.655" y="-159" font-family="sans" font-size="10.00">tissue_samples</text>
</g>
<!-- 3&#45;&gt;1 -->
<g id="edge3" class="edge"><title>3&#45;&gt;1</title>
<path fill="none" stroke="grey" stroke-width="2" d="M142.554,-143.697C136.264,-135.389 128.608,-125.277 121.69,-116.141"/>
<polygon fill="grey" stroke="grey" stroke-width="2" points="124.432,-113.964 115.605,-108.104 118.851,-118.19 124.432,-113.964"/>
</g>
<!-- 4 -->
<g id="node5" class="node"><title>4</title>
<path fill="none" stroke="#56d8a9" stroke-width="2" stroke-dasharray="5,2" d="M65.6919,-252C65.6919,-252 33.6181,-252 33.6181,-252 27.6181,-252 21.6181,-246 21.6181,-240 21.6181,-240 21.6181,-228 21.6181,-228 21.6181,-222 27.6181,-216 33.6181,-216 33.6181,-216 65.6919,-216 65.6919,-216 71.6919,-216 77.6919,-222 77.6919,-228 77.6919,-228 77.6919,-240 77.6919,-240 77.6919,-246 71.6919,-252 65.6919,-252"/>
<text text-anchor="middle" x="49.655" y="-231" font-family="sans" font-size="10.00">gene_data</text>
</g>
<!-- 4&#45;&gt;2 -->
<g id="edge4" class="edge"><title>4&#45;&gt;2</title>
<path fill="none" stroke="grey" stroke-width="2" d="M49.655,-215.697C49.655,-207.983 49.655,-198.712 49.655,-190.112"/>
<polygon fill="grey" stroke="grey" stroke-width="2" points="53.1551,-190.104 49.655,-180.104 46.1551,-190.104 53.1551,-190.104"/>
</g>
<!-- 5 -->
<g id="node6" class="node"><title>5</title>
<path fill="none" stroke="#afd856" stroke-width="2" stroke-dasharray="5,2" d="M190.412,-252C190.412,-252 120.898,-252 120.898,-252 114.898,-252 108.898,-246 108.898,-240 108.898,-240 108.898,-228 108.898,-228 108.898,-222 114.898,-216 120.898,-216 120.898,-216 190.412,-216 190.412,-216 196.412,-216 202.412,-222 202.412,-228 202.412,-228 202.412,-240 202.412,-240 202.412,-246 196.412,-252 190.412,-252"/>
<text text-anchor="middle" x="155.655" y="-231" font-family="sans" font-size="10.00">sample_tissue_data</text>
</g>
<!-- 5&#45;&gt;3 -->
<g id="edge5" class="edge"><title>5&#45;&gt;3</title>
<path fill="none" stroke="grey" stroke-width="2" d="M155.655,-215.697C155.655,-207.983 155.655,-198.712 155.655,-190.112"/>
<polygon fill="grey" stroke="grey" stroke-width="2" points="159.155,-190.104 155.655,-180.104 152.155,-190.104 159.155,-190.104"/>
</g>
</g>
</svg>
